<svg width="22" height="22" viewBox="0 0 22 22" fill="none" xmlns="http://www.w3.org/2000/svg">
<path d="M4.125 19.9375C2.98591 19.9375 2.0625 19.0141 2.0625 17.875V4.125C2.0625 2.98591 2.98591 2.0625 4.125 2.0625H15.125C15.5047 2.0625 15.8125 2.3703 15.8125 2.75C15.8125 3.1297 15.5047 3.4375 15.125 3.4375H4.125C3.7453 3.4375 3.4375 3.7453 3.4375 4.125V17.875C3.4375 18.2547 3.7453 18.5625 4.125 18.5625H17.875C18.2547 18.5625 18.5625 18.2547 18.5625 17.875V11C18.5625 10.6203 18.8703 10.3125 19.25 10.3125C19.6297 10.3125 19.9375 10.6203 19.9375 11V17.875C19.9375 19.0141 19.0141 19.9375 17.875 19.9375H4.125Z" fill="white"/>
<path d="M11.4861 14.2361L21.1111 4.61114C21.3796 4.34265 21.3796 3.90735 21.1111 3.63886C20.8426 3.37038 20.4074 3.37038 20.1389 3.63886L11 12.7777L7.36114 9.13886C7.09265 8.87038 6.65735 8.87038 6.38886 9.13886C6.12038 9.40735 6.12038 9.84265 6.38886 10.1111L10.5139 14.2361C10.7823 14.5046 11.2177 14.5046 11.4861 14.2361Z" fill="white"/>
</svg>
