<svg width="22" height="22" viewBox="0 0 22 22" fill="none" xmlns="http://www.w3.org/2000/svg">
<path d="M11.9723 2.06252C11.4353 1.52555 10.5647 1.52555 10.0277 2.06252L0.888864 11.2014C0.620379 11.4699 0.620379 11.9052 0.888864 12.1737C1.15735 12.4421 1.59265 12.4421 1.86114 12.1737L2.75 11.2848V18.5625C2.75 19.7016 3.67341 20.625 4.8125 20.625H17.1875C18.3266 20.625 19.25 19.7016 19.25 18.5625V11.2848L20.1389 12.1737C20.4074 12.4421 20.8426 12.4421 21.1111 12.1737C21.3796 11.9052 21.3796 11.4699 21.1111 11.2014L17.875 7.96525V3.43752C17.875 3.05782 17.5672 2.75002 17.1875 2.75002H15.8125C15.4328 2.75002 15.125 3.05782 15.125 3.43752V5.21525L11.9723 2.06252ZM17.875 9.90979V18.5625C17.875 18.9422 17.5672 19.25 17.1875 19.25H4.8125C4.4328 19.25 4.125 18.9422 4.125 18.5625V9.90979L11 3.03479L17.875 9.90979Z" fill="white"/>
</svg>
