<svg width="22" height="22" viewBox="0 0 22 22" fill="none" xmlns="http://www.w3.org/2000/svg">
<path d="M11 11C13.2782 11 15.125 9.15317 15.125 6.875C15.125 4.59683 13.2782 2.75 11 2.75C8.72183 2.75 6.875 4.59683 6.875 6.875C6.875 9.15317 8.72183 11 11 11ZM13.75 6.875C13.75 8.39378 12.5188 9.625 11 9.625C9.48122 9.625 8.25 8.39378 8.25 6.875C8.25 5.35622 9.48122 4.125 11 4.125C12.5188 4.125 13.75 5.35622 13.75 6.875Z" fill="white"/>
<path d="M19.25 17.875C19.25 19.25 17.875 19.25 17.875 19.25H4.125C4.125 19.25 2.75 19.25 2.75 17.875C2.75 16.5 4.125 12.375 11 12.375C17.875 12.375 19.25 16.5 19.25 17.875ZM17.875 17.8702C17.873 17.5309 17.6636 16.5144 16.7308 15.5816C15.834 14.6848 14.1475 13.75 11 13.75C7.85246 13.75 6.16599 14.6848 5.26913 15.5816C4.33641 16.5144 4.12696 17.5309 4.125 17.8702H17.875Z" fill="white"/>
</svg>
